<?xml version="1.0" encoding="UTF-8"?>
<svg viewBox="0 0 340 160" xmlns="http://www.w3.org/2000/svg">
  <!-- Logo BlueMedia versión corta B1 (segunda imagen) -->
  <g fill="#000000">
    <!-- B -->
    <path d="M160 170 L160 330 L240 330 Q280 330 300 305 Q320 280 320 245 Q320 210 300 185 Q280 160 240 160 L200 160 L200 195 L230 195 Q245 195 252.5 202.5 Q260 210 260 245 Q260 280 252.5 287.5 Q245 295 230 295 L200 295 L200 330 M160 170 L230 170 Q270 170 290 145 Q310 120 310 85 Q310 50 290 25 Q270 0 230 0 L160 0 L160 170 M200 35 L230 35 Q245 35 252.5 42.5 Q260 50 260 85 Q260 120 252.5 127.5 Q245 135 230 135 L200 135 L200 35"/>
    
    <!-- 1 -->
    <path d="M320 0 L320 35 L300 35 L300 295 L340 295 L340 330 L260 330 L260 295 L300 295 L300 0 L320 0"/>
  </g>
</svg>
